<svg xmlns="http://www.w3.org/2000/svg" width="200" height="200" viewBox="0 0 200 200">
<g>
<path d="M 107.09,0.44 L 108.42,0.56 L 111.22,0.90 L 115.72,1.56 L 118.95,2.08 L 125.22,3.54 L 128.32,4.34 L 134.34,6.35 L 137.31,7.42 L 143.05,9.96 L 145.89,11.29 L 151.32,14.35 L 154.00,15.95 L 159.10,19.51 L 161.61,21.35 L 166.35,25.40 L 168.68,27.49 L 173.04,32.01 L 179.13,39.31 L 180.57,41.20 L 183.21,45.12 L 184.50,47.09 L 186.84,51.15 L 187.98,53.19 L 190.02,57.37 L 191.01,59.47 L 192.75,63.76 L 193.58,65.92 L 195.01,70.30 L 195.69,72.50 L 196.82,76.95 L 197.34,79.18 L 198.16,83.70 L 198.53,85.96 L 199.04,90.51 L 199.26,92.79 L 199.45,97.37 L 199.51,99.66 L 199.40,104.25 L 199.30,106.54 L 198.87,111.12 L 198.61,113.41 L 197.87,117.96 L 197.45,120.23 L 196.39,124.74 L 195.82,126.99 L 194.43,131.44 L 193.70,133.66 L 192.00,138.04 L 189.07,144.50 L 187.87,146.93 L 185.18,151.60 L 183.80,153.90 L 180.76,158.29 L 179.21,160.46 L 175.85,164.56 L 174.14,166.58 L 170.49,170.38 L 168.63,172.24 L 164.70,175.73 L 162.71,177.44 L 158.54,180.60 L 156.42,182.14 L 152.03,184.97 L 149.81,186.34 L 145.21,188.81 L 142.89,190.01 L 138.12,192.12 L 135.72,193.13 L 130.80,194.86 L 128.32,195.68 L 123.28,197.03 L 120.74,197.65 L 115.60,198.60 L 113.02,199.02 L 107.79,199.55 L 105.17,199.76 L 99.90,199.87 L 97.26,199.86 L 91.96,199.53 L 89.31,199.31 L 84.00,198.52 L 81.32,198.06 L 76.10,196.85 L 73.50,196.20 L 68.45,194.61 L 65.95,193.77 L 61.09,191.81 L 58.68,190.78 L 54.03,188.47 L 51.73,187.27 L 47.29,184.62 L 45.11,183.26 L 40.91,180.29 L 38.85,178.76 L 34.91,175.49 L 32.97,173.82 L 29.30,170.25 L 27.50,168.44 L 24.12,164.60 L 22.46,162.65 L 19.38,158.55 L 17.88,156.48 L 15.11,152.14 L 13.77,149.94 L 11.33,145.38 L 10.16,143.07 L 8.07,138.30 L 7.07,135.89 L 5.34,130.92 L 4.53,128.42 L 3.18,123.27 L 1.61,115.37 L 1.35,113.78 L 0.95,110.89 L 0.76,109.49 L 0.47,106.88 L 0.22,104.33 L 0.09,99.68 L 0.09,97.38 L 0.32,94.42 L 0.41,94.56 L 0.47,94.54 L 0.59,94.42 L 0.66,94.25 L 0.87,93.00 L 0.80,92.09 L 0.66,91.75 L 0.57,91.61 L 0.58,91.46 L 0.93,88.90 L 1.58,84.75 L 2.06,81.90 L 3.29,76.45 L 3.94,73.76 L 5.51,68.60 L 6.33,66.06 L 8.26,61.17 L 9.27,58.76 L 11.57,54.12 L 12.76,51.82 L 15.45,47.39 L 16.84,45.20 L 19.93,40.97 L 21.53,38.87 L 25.03,34.79 L 30.77,28.83 L 32.73,26.94 L 36.65,23.47 L 38.61,21.80 L 42.58,18.76 L 44.57,17.29 L 48.62,14.64 L 50.66,13.37 L 54.84,11.10 L 56.96,10.01 L 61.33,8.09 L 63.54,7.18 L 68.13,5.58 L 70.46,4.83 L 75.33,3.54 L 83.00,1.91 L 84.60,1.62 L 87.57,1.15 L 89.02,0.93 L 91.75,0.60 L 94.43,0.30 L 99.44,0.11 L 101.94,0.08 M 99.03,45.00 L 49.00,45.00 L 49.00,69.00 L 84.00,69.00 L 84.00,88.87 L 66.07,89.19 L 60.59,89.29 L 57.54,89.37 L 56.29,89.41 L 53.94,89.51 L 52.99,89.57 L 51.23,89.70 L 50.52,89.78 L 49.22,89.96 L 48.70,90.07 L 47.74,90.31 L 47.35,90.45 L 45.96,91.12 L 45.32,91.60 L 43.23,93.60 L 42.15,95.13 L 41.77,95.96 L 41.10,97.66 L 40.93,98.55 L 40.67,100.35 L 40.70,101.25 L 40.86,103.06 L 41.09,103.94 L 41.65,105.68 L 42.09,106.50 L 43.06,108.09 L 43.69,108.80 L 45.06,110.15 L 45.90,110.71 L 48.19,111.98 L 49.04,112.27 L 49.55,112.39 L 50.64,112.59 L 51.32,112.67 L 52.79,112.80 L 53.71,112.85 L 55.70,112.92 L 56.93,112.95 L 59.57,112.98 L 61.17,112.99 L 64.60,113.00 L 84.00,113.00 L 84.00,162.05 L 113.50,161.50 L 113.77,137.25 L 114.04,113.00 L 130.57,113.00 L 136.74,112.96 L 140.20,112.88 L 141.65,112.81 L 144.35,112.63 L 145.46,112.49 L 147.53,112.19 L 148.37,111.98 L 149.93,111.52 L 150.55,111.23 L 151.71,110.58 L 152.18,110.18 L 153.05,109.32 L 153.43,108.79 L 154.14,107.69 L 154.48,107.03 L 155.44,104.62 L 155.83,102.96 L 155.90,102.13 L 155.96,100.48 L 155.87,99.67 L 155.63,98.06 L 155.40,97.30 L 154.86,95.79 L 154.50,95.10 L 153.69,93.76 L 153.19,93.17 L 152.13,92.05 L 151.50,91.58 L 150.20,90.73 L 149.47,90.42 L 147.02,89.77 L 145.93,89.59 L 145.29,89.52 L 143.95,89.38 L 143.17,89.33 L 141.55,89.22 L 140.63,89.18 L 138.70,89.10 L 137.61,89.08 L 135.36,89.03 L 134.09,89.02 L 131.48,89.00 L 114.00,89.00 L 114.00,69.05 L 131.25,68.77 L 148.50,68.50 L 148.78,56.75 L 149.06,45.00 M 137.08,94.01 L 140.12,94.02 L 141.35,94.04 L 143.61,94.09 L 144.49,94.14 L 146.11,94.23 L 146.72,94.30 L 147.82,94.46 L 148.23,94.57 L 148.95,94.81 L 149.21,94.97 L 150.07,95.68 L 150.44,96.22 L 151.67,98.82 L 152.00,100.65 L 151.92,101.55 L 151.60,103.36 L 151.20,104.20 L 150.25,105.84 L 149.55,106.55 L 147.09,109.00 L 124.05,109.00 L 120.13,109.00 L 117.76,109.00 L 116.68,108.99 L 114.61,108.99 L 113.68,108.98 L 111.88,108.97 L 111.08,108.96 L 108.14,108.92 L 107.00,108.88 L 104.95,108.79 L 104.20,108.73 L 102.88,108.59 L 102.44,108.49 L 101.69,108.28 L 101.48,108.15 L 101.15,107.85 L 101.08,107.67 L 101.00,107.28 L 101.00,107.05 L 101.21,106.02 L 101.65,105.54 L 102.09,105.38 L 103.14,105.11 L 103.98,105.02 L 104.88,104.94 L 105.42,104.90 L 106.57,104.83 L 107.25,104.80 L 113.50,104.50 L 113.80,99.25 L 114.10,94.00 L 131.50,94.00 M 84.00,105.00 L 90.57,105.00 L 92.50,105.01 L 93.57,105.04 L 94.00,105.06 L 95.51,105.18 L 95.95,105.30 L 96.64,105.60 L 96.76,105.83 L 96.88,106.37 L 96.81,106.75 L 96.71,107.13 L 96.58,107.29 L 96.27,107.58 L 95.98,107.70 L 95.32,107.93 L 94.82,108.03 L 93.68,108.20 L 92.89,108.27 L 91.13,108.39 L 89.98,108.44 L 87.47,108.54 L 85.90,108.57 L 82.51,108.65 L 80.44,108.68 L 78.30,108.71 L 77.13,108.72 L 74.71,108.75 L 73.39,108.77 L 69.49,108.81 L 67.12,108.84 L 66.04,108.85 L 63.97,108.86 L 63.03,108.87 L 61.22,108.87 L 60.40,108.87 L 57.39,108.86 L 56.21,108.83 L 54.03,108.76 L 53.19,108.70 L 51.67,108.57 L 51.09,108.47 L 50.05,108.25 L 49.64,108.11 L 48.29,107.45 L 47.66,106.95 L 46.38,105.76 L 45.77,104.95 L 45.56,104.50 L 45.22,103.55 L 45.13,102.99 L 45.00,101.81 L 45.00,101.08 L 45.09,98.86 L 45.29,97.64 L 45.50,97.16 L 46.02,96.25 L 46.44,95.90 L 47.41,95.27 L 48.11,95.03 L 49.68,94.62 L 50.73,94.48 L 53.03,94.24 L 54.50,94.17 L 57.67,94.05 L 59.63,94.03 L 61.66,94.01 L 62.77,94.01 L 65.07,94.00 L 84.00,94.00 Z" fill="rgba(37,159,122,1)"/>
<path d="M 0.66,91.75 L 0.80,92.09 L 0.87,93.00 L 0.66,94.25 L 0.59,94.42 L 0.47,94.54 L 0.41,94.56 L 0.31,94.40 L 0.21,94.17 L 0.16,93.00 L 0.16,92.31 L 0.31,91.60 L 0.35,91.49 L 0.47,91.46 Z" fill="rgba(54,167,132,1)"/>
<path d="M 84.00,137.53 L 84.00,113.00 L 66.65,113.00 L 64.60,113.00 L 61.17,112.99 L 59.57,112.98 L 56.93,112.95 L 55.70,112.92 L 53.71,112.85 L 52.79,112.80 L 51.32,112.67 L 50.64,112.59 L 49.55,112.39 L 49.04,112.27 L 48.19,111.98 L 45.90,110.71 L 45.06,110.15 L 43.69,108.80 L 43.06,108.09 L 42.09,106.50 L 41.65,105.68 L 41.09,103.94 L 40.86,103.06 L 40.70,101.25 L 40.67,100.35 L 40.93,98.55 L 41.10,97.66 L 41.77,95.96 L 42.15,95.13 L 43.23,93.60 L 45.32,91.60 L 45.96,91.12 L 47.35,90.45 L 47.74,90.31 L 48.70,90.07 L 49.22,89.96 L 50.52,89.78 L 51.23,89.70 L 52.99,89.57 L 53.94,89.51 L 56.29,89.41 L 57.54,89.37 L 60.59,89.29 L 66.07,89.19 L 84.00,88.87 L 84.00,78.94 L 84.00,69.00 L 66.50,69.00 L 49.00,69.00 L 49.00,57.00 L 49.00,45.00 L 99.03,45.00 L 149.06,45.00 L 148.78,56.75 L 148.50,68.50 L 131.25,68.77 L 114.00,69.05 L 114.00,79.02 L 114.00,89.00 L 130.03,89.00 L 131.48,89.00 L 134.09,89.02 L 135.36,89.03 L 137.61,89.08 L 138.70,89.10 L 140.63,89.18 L 141.55,89.22 L 143.17,89.33 L 143.95,89.38 L 145.29,89.52 L 145.93,89.59 L 147.02,89.77 L 149.47,90.42 L 150.20,90.73 L 151.50,91.58 L 152.13,92.05 L 153.19,93.17 L 153.69,93.76 L 154.50,95.10 L 154.86,95.79 L 155.40,97.30 L 155.63,98.06 L 155.87,99.67 L 155.96,100.48 L 155.90,102.13 L 155.83,102.96 L 155.44,104.62 L 154.48,107.03 L 154.14,107.69 L 153.43,108.79 L 153.05,109.32 L 152.18,110.18 L 151.71,110.58 L 150.55,111.23 L 149.93,111.52 L 148.37,111.98 L 147.53,112.19 L 145.46,112.49 L 144.35,112.63 L 141.65,112.81 L 140.20,112.88 L 136.74,112.96 L 130.57,113.00 L 114.04,113.00 L 113.77,137.25 L 113.50,161.50 L 98.75,161.78 L 84.00,162.05 L 84.00,137.53 M 96.81,106.75 L 96.88,106.37 L 96.76,105.83 L 96.64,105.60 L 95.95,105.30 L 95.51,105.18 L 94.00,105.06 L 93.57,105.04 L 92.50,105.01 L 90.57,105.00 L 84.00,105.00 L 84.00,99.50 L 84.00,94.00 L 66.33,94.00 L 65.07,94.00 L 62.77,94.01 L 61.66,94.01 L 59.63,94.03 L 57.67,94.05 L 54.50,94.17 L 53.03,94.24 L 50.73,94.48 L 49.68,94.62 L 48.11,95.03 L 47.41,95.27 L 46.44,95.90 L 46.02,96.25 L 45.50,97.16 L 45.29,97.64 L 45.09,98.86 L 45.00,101.08 L 45.00,101.81 L 45.13,102.99 L 45.22,103.55 L 45.56,104.50 L 45.77,104.95 L 46.38,105.76 L 47.66,106.95 L 48.29,107.45 L 49.64,108.11 L 50.05,108.25 L 51.09,108.47 L 51.67,108.57 L 53.19,108.70 L 54.03,108.76 L 56.21,108.83 L 57.39,108.86 L 60.40,108.87 L 61.22,108.87 L 63.03,108.87 L 63.97,108.86 L 66.04,108.85 L 67.12,108.84 L 69.49,108.81 L 73.39,108.77 L 74.71,108.75 L 77.13,108.72 L 78.30,108.71 L 80.44,108.68 L 82.51,108.65 L 85.90,108.57 L 87.47,108.54 L 89.98,108.44 L 91.13,108.39 L 92.89,108.27 L 93.68,108.20 L 94.82,108.03 L 95.32,107.93 L 95.98,107.70 L 96.27,107.58 L 96.58,107.29 L 96.71,107.13 M 149.55,106.55 L 150.25,105.84 L 151.20,104.20 L 151.60,103.36 L 151.92,101.55 L 152.00,100.65 L 151.67,98.82 L 150.44,96.22 L 150.07,95.68 L 149.21,94.97 L 148.95,94.81 L 148.23,94.57 L 147.82,94.46 L 146.72,94.30 L 146.11,94.23 L 144.49,94.14 L 143.61,94.09 L 141.35,94.04 L 140.12,94.02 L 137.08,94.01 L 131.50,94.00 L 114.10,94.00 L 113.80,99.25 L 113.50,104.50 L 107.25,104.80 L 106.57,104.83 L 105.42,104.90 L 104.88,104.94 L 103.98,105.02 L 103.14,105.11 L 102.09,105.38 L 101.65,105.54 L 101.21,106.02 L 101.00,107.05 L 101.00,107.28 L 101.08,107.67 L 101.15,107.85 L 101.48,108.15 L 101.69,108.28 L 102.44,108.49 L 102.88,108.59 L 104.20,108.73 L 104.95,108.79 L 107.00,108.88 L 108.14,108.92 L 111.08,108.96 L 111.88,108.97 L 113.68,108.98 L 114.61,108.99 L 116.68,108.99 L 117.76,109.00 L 120.13,109.00 L 124.05,109.00 L 147.09,109.00 L 149.55,106.55 Z" fill="rgba(253,253,253,1)"/>
</g>
</svg>